<svg id="Layer_1" xmlns="http://www.w3.org/2000/svg" viewBox="0 0 265 248" width="265" height="248"><style>.st0{fill:#002f67}.st1{fill:#eb1c24}.st2{fill:#a61e22}.st3{fill:#a70d17}</style><g id="XMLID_263_"><path id="XMLID_272_" class="st0" d="M217.3 50.4l-1.7-1.1 5.6-8.5c-.7.3-1.5.4-2.1.4-1.7 0-3.1-.6-4.2-1.8-1.1-1.2-1.7-2.7-1.7-4.4 0-1.2.3-2.3.8-3.2.5-.9 1.3-1.7 2.3-2.3 1-.6 2.1-.9 3.3-.9 1.1 0 2.2.3 3.2.8s1.7 1.3 2.3 2.3c.5 1 .8 2.1.8 3.2 0 .9-.2 1.7-.5 2.7-.3.9-.9 2.1-1.9 3.4l-6.2 9.4zm2.2-11c1.2 0 2.3-.4 3.1-1.3.9-.9 1.3-1.9 1.3-3.1 0-1.2-.4-2.2-1.3-3.1-.9-.9-1.9-1.3-3.1-1.3-1.2 0-2.2.4-3.1 1.3-.9.9-1.3 1.9-1.3 3.1 0 1.2.4 2.2 1.3 3.1.9.9 1.9 1.3 3.1 1.3z"/><path id="XMLID_269_" class="st0" d="M234.5 28.7l1.7 1.1-5.6 8.5c.7-.3 1.5-.4 2.1-.4 1.7 0 3.1.6 4.2 1.8 1.1 1.2 1.7 2.7 1.7 4.4 0 1.2-.3 2.3-.8 3.2-.5.9-1.3 1.7-2.3 2.3-1 .6-2.1.9-3.3.9-1.1 0-2.2-.3-3.1-.8-1-.5-1.7-1.3-2.3-2.3s-.8-2.1-.8-3.2c0-.9.2-1.7.5-2.7.3-.9.9-2.1 1.9-3.4l6.1-9.4zm-2.2 11c-1.2 0-2.2.4-3.1 1.3-.9.9-1.3 1.9-1.3 3.1 0 1.2.4 2.2 1.3 3.1s1.9 1.3 3.1 1.3c1.2 0 2.2-.4 3.1-1.3.9-.9 1.3-1.9 1.3-3.1s-.4-2.3-1.3-3.1c-.9-.9-1.9-1.3-3.1-1.3z"/><path id="XMLID_267_" class="st0" d="M242.3 46.8c.5 0 .9.2 1.2.5.3.3.5.7.5 1.3 0 .5-.2.9-.5 1.2-.3.3-.7.5-1.2.5s-.9-.2-1.2-.5c-.3-.3-.5-.7-.5-1.2s.2-.9.5-1.3.7-.5 1.2-.5z"/><path id="XMLID_264_" class="st0" d="M248.6 50.4l-1.7-1.1 5.7-8.5c-.7.3-1.5.4-2.1.4-1.7 0-3.1-.6-4.2-1.8-1.1-1.2-1.7-2.7-1.7-4.4 0-1.2.3-2.3.8-3.2.5-.9 1.3-1.7 2.3-2.3 1-.6 2.1-.9 3.3-.9 1.1 0 2.2.3 3.2.8s1.7 1.3 2.3 2.3c.5 1 .8 2.1.8 3.2 0 .9-.2 1.7-.5 2.7-.3.9-.9 2.1-1.9 3.4l-6.3 9.4zm2.3-11c1.2 0 2.3-.4 3.1-1.3.9-.9 1.3-1.9 1.3-3.1 0-1.2-.4-2.2-1.3-3.1-.9-.9-1.9-1.3-3.1-1.3-1.2 0-2.2.4-3.1 1.3-.9.9-1.3 1.9-1.3 3.1 0 1.2.4 2.2 1.3 3.1s1.9 1.3 3.1 1.3z"/></g><g id="XMLID_250_"><path id="XMLID_262_" class="st0" d="M184.1 5.7l-.2-.2V8.4c.1-.1.1-.1.2-.3V5.7z"/><path id="XMLID_261_" class="st0" d="M196.9 12.6v13.3H189.8l.2.1h7.1V12.8c0-2.5-.7-4.5-2.1-5.7 1.2 1.2 1.9 3.1 1.9 5.5z"/><path id="XMLID_260_" class="st0" d="M183.9 14.8v11H176.8l.2.2h7.1V15c0-2.2 1.3-3.4 3-3.4.7 0 1.3.2 1.9.7-.5-.5-1.2-.9-2-.9-1.8 0-3.1 1.2-3.1 3.4z"/><path id="XMLID_259_" class="st0" d="M209.1 11.2c-2.6 0-4.3 2.1-4.3 4.5v.1c0 1.3.5 2.6 1.5 3.5-.8-.9-1.3-2-1.3-3.3v-.1c0-2.5 1.7-4.5 4.3-4.5 1.1 0 2.1.4 2.9 1.1-.9-.8-1.9-1.3-3.1-1.3z"/><path id="XMLID_258_" class="st0" d="M210.7 20.3v5.9c-.5.1-1.1.1-1.7.1-3.2 0-6-1.2-8-3.1 2 2 4.9 3.3 8.2 3.3.6 0 1.1-.1 1.7-.1v-6.2l-.2-.2v.3z"/><path id="XMLID_257_" class="st0" d="M220.3 15.6c0 4.4-2.7 8.2-6.7 9.8-.1.1-.2.1-.2.1l.2.2c4.2-1.6 6.9-5.5 6.9-9.9v-.1c0-2.9-1.2-5.5-3.2-7.5 1.9 2.1 3 4.6 3 7.4z"/><path id="XMLID_256_" class="st0" d="M239.6 12.2c1.9-.9 4.1-1.3 6.2-1.3 1.4 0 2.5.3 3.1.9-.7-.7-1.7-1.1-3.3-1.1-2.1 0-4.3.5-6.2 1.3l.2.2z"/><path id="XMLID_255_" class="st0" d="M247.1 17.2c.9 0 1.9.2 2.6.5v-.1c-.7-.3-1.7-.5-2.8-.5-2.1 0-3.3 1-3.3 2.5v.1c0 .7.3 1.3.7 1.6-.3-.3-.5-.9-.5-1.4v-.1c.1-1.6 1.3-2.6 3.3-2.6z"/><path id="XMLID_254_" class="st0" d="M254.7 7.9c1.4 1.4 2 3.5 2 6.3v11.7H249.6l.2.2h7.1V14.4c0-2.9-.7-5-2.2-6.5z"/><path id="XMLID_253_" class="st0" d="M249.6 23.8c-1.4 1.5-3.3 2.5-5.9 2.5-2 0-3.8-.6-5.1-1.8 1.3 1.3 3.1 2 5.3 2 2.5 0 4.4-.9 5.7-2.3v-.4z"/><path id="XMLID_252_" class="st0" d="M229.5 17.1l-3.7-11.4-.2-.2.1.2 3.8 11.6z"/><path id="XMLID_251_" class="st0" d="M240.8 5.5l-8.1 20.3h-6.5l.2.2h6.5L241 5.7z"/></g><g id="XMLID_243_"><path id="XMLID_249_" class="st1" d="M190 5.1c-2.9 0-4.7 1.6-6.1 3.3V5.5h-7.1v20.3h7.1v-11c0-2.2 1.3-3.4 3-3.4s2.9 1.2 2.9 3.4v11h7.1V12.6c0-4.7-2.6-7.5-6.9-7.5z"/><path id="XMLID_248_" class="st1" d="M233.4 5.5l-3.9 11.8-3.9-11.8h-7.5l8.1 20.3h6.5l8.1-20.3z"/><path id="XMLID_247_" class="st1" d="M209.1 5.1c-6.5 0-11.3 4.9-11.3 10.6v.1c0 5.8 4.7 10.5 11.2 10.5.6 0 1.1-.1 1.7-.1V20c-.5.2-1 .3-1.6.3-2.5 0-4.3-2.1-4.3-4.6v-.1c0-2.5 1.7-4.5 4.3-4.5 2.5 0 4.3 2.1 4.3 4.6v10c4.2-1.6 6.9-5.5 6.9-9.9v-.1c0-5.8-4.7-10.6-11.2-10.6z"/><path id="XMLID_244_" class="st1" d="M254.5 7.7c-1.6-1.6-4.1-2.5-7.7-2.5-1.9 0-3.4.2-4.8.5l-2.5 6.3c1.9-.9 4.1-1.3 6.2-1.3 2.7 0 4.1 1.2 4.1 3.3v.3c-1.1-.4-3-.8-4.9-.8-4.7 0-7.9 2.2-7.9 6.4v.1c0 4.1 2.9 6.3 6.8 6.3 2.7 0 4.6-1 5.9-2.5v2.1h7.1V14.2c-.1-2.9-.8-5-2.3-6.5zm-4.8 10.8c0 2-1.5 3.3-3.5 3.3-1.5 0-2.5-.8-2.5-2.2v-.1c0-1.5 1.2-2.5 3.3-2.5 1.1 0 2.1.2 2.8.5l-.1 1z"/></g><g id="XMLID_1_"><path id="XMLID_11_" class="st0" d="M106.4 33h4.9v24.8h-2.5V35.5h-3.9l1.5-2.5z"/><path id="XMLID_14_" class="st0" d="M113.6 45.4c0-3.3.3-5.8 1.1-7.6.7-1.8 1.7-3.1 3-4.1 1.3-.9 2.7-1.4 4.3-1.4 1.6 0 3.1.5 4.3 1.4 1.3.9 2.3 2.3 3.1 4.2s1.1 4.3 1.1 7.5c0 3.1-.4 5.6-1.1 7.4-.7 1.9-1.8 3.2-3.1 4.2-1.3.9-2.8 1.4-4.4 1.4-1.6 0-3-.5-4.3-1.3-1.3-.9-2.3-2.3-3-4.1-.6-1.8-1-4.3-1-7.6zm2.3.1c0 2.8.3 4.9.7 6.3.5 1.4 1.3 2.5 2.2 3.3 1 .7 2 1.1 3.1 1.1s2.1-.3 3.1-1.1c.9-.7 1.7-1.8 2.2-3.3.6-1.7.9-3.9.9-6.4 0-2.5-.3-4.5-.8-6.1-.5-1.6-1.3-2.7-2.3-3.5-1-.7-2-1.1-3.1-1.1s-2.1.4-3.1 1.1c-.9.7-1.7 1.8-2.2 3.3-.4 1.5-.7 3.6-.7 6.4z"/><path id="XMLID_17_" class="st0" d="M131.9 45.4c0-3.3.3-5.8 1.1-7.6.7-1.8 1.7-3.1 3-4.1 1.3-.9 2.7-1.4 4.3-1.4 1.6 0 3.1.5 4.3 1.4 1.3.9 2.3 2.3 3.1 4.2.7 1.9 1.1 4.3 1.1 7.5 0 3.1-.4 5.6-1.1 7.4-.7 1.9-1.8 3.2-3.1 4.2-1.3.9-2.8 1.4-4.4 1.4s-3-.5-4.3-1.3c-1.3-.9-2.3-2.3-3-4.1-.6-1.8-1-4.3-1-7.6zm2.4.1c0 2.8.3 4.9.7 6.3.5 1.4 1.3 2.5 2.2 3.3 1 .7 2 1.1 3.1 1.1s2.1-.3 3.1-1.1c.9-.7 1.7-1.8 2.2-3.3.6-1.7.9-3.9.9-6.4 0-2.5-.3-4.5-.8-6.1-.5-1.6-1.3-2.7-2.3-3.5-1-.7-2-1.1-3.1-1.1s-2.1.4-3.1 1.1c-.9.7-1.7 1.8-2.2 3.3-.5 1.5-.7 3.6-.7 6.4z"/></g><g id="XMLID_7_"><path id="XMLID_8_" class="st2" d="M14.3 33.6l-.3-.3v3.5c.1-.1.1-.2.3-.3v-2.9z"/><path id="XMLID_21_" class="st2" d="M29.6 41.8v15.9H21l.3.3h8.5V42c0-3-.9-5.3-2.5-6.9 1.5 1.5 2.3 3.8 2.3 6.7z"/><path id="XMLID_22_" class="st2" d="M14 44.5v13.1H5.5l.3.3h8.5V44.7c0-2.7 1.5-4.1 3.6-4.1.9 0 1.6.3 2.2.8-.6-.7-1.5-1-2.5-1-2 0-3.6 1.4-3.6 4.1z"/><path id="XMLID_23_" class="st2" d="M44.2 40.1c-3.1 0-5.1 2.5-5.1 5.4v.1c0 1.6.7 3.1 1.7 4.1-.9-1-1.5-2.4-1.5-3.9v-.1c0-2.9 2-5.4 5.1-5.4 1.3 0 2.5.5 3.5 1.3-1-.9-2.3-1.5-3.7-1.5z"/><path id="XMLID_24_" class="st2" d="M46.2 51v7.1c-.7.1-1.3.1-2 .1-3.9 0-7.2-1.4-9.6-3.7 2.4 2.4 5.8 3.9 9.8 3.9.7 0 1.3-.1 2-.1V51l-.3-.3.1.3z"/><path id="XMLID_25_" class="st2" d="M57.6 45.5c0 5.3-3.2 9.8-8.1 11.7-.1.1-.3.1-.3.1l.3.3c5-1.9 8.3-6.5 8.3-11.8v-.1c0-3.5-1.4-6.7-3.8-8.9 2.3 2.2 3.6 5.3 3.6 8.7z"/><path id="XMLID_26_" class="st2" d="M80.8 41.4c2.3-1 4.9-1.6 7.4-1.6 1.7 0 2.9.4 3.7 1.1-.8-.9-2.1-1.3-4-1.3-2.5 0-5.1.6-7.4 1.6l.3.2z"/><path id="XMLID_27_" class="st2" d="M89.8 47.4c1.1 0 2.3.2 3.1.5v-.1c-.9-.3-2.1-.6-3.3-.6-2.5 0-3.9 1.2-3.9 3v.1c0 .8.3 1.5.9 1.9-.4-.5-.6-1-.6-1.7v-.1c-.2-1.8 1.3-3 3.8-3z"/><path id="XMLID_28_" class="st2" d="M98.8 36.2c1.7 1.7 2.4 4.2 2.4 7.5v14h-8.5l.3.3h8.5V44c0-3.5-.8-6-2.7-7.8z"/><path id="XMLID_29_" class="st2" d="M92.7 55.2c-1.7 1.9-3.9 3.1-7.1 3.1-2.5 0-4.6-.7-6.1-2.1 1.5 1.5 3.7 2.4 6.3 2.4 3.1 0 5.3-1.1 6.9-2.8v-.6z"/><path id="XMLID_30_" class="st2" d="M68.7 47.2l-4.5-13.6-.2-.2v.2l4.6 13.8z"/><path id="XMLID_31_" class="st2" d="M82.2 33.4l-9.8 24.3H64.7l.2.2h7.8l9.7-24.3z"/></g><g id="XMLID_9_"><path id="XMLID_10_" class="st1" d="M21.4 32.8c-3.5 0-5.7 1.9-7.3 3.9v-3.4H5.5v24.3H14V44.5c0-2.7 1.5-4.1 3.6-4.1 2 0 3.4 1.5 3.4 4.1v13.1h8.5V41.8c.1-5.6-3-9-8.1-9z"/><path id="XMLID_12_" class="st1" d="M73.3 33.4l-4.7 14-4.6-14h-9l9.7 24.3h7.7l9.8-24.3z"/><path id="XMLID_20_" class="st1" d="M44.2 32.8c-7.8 0-13.5 5.8-13.5 12.7v.1c0 6.9 5.6 12.6 13.4 12.6.7 0 1.3-.1 2-.1v-7.4c-.5.2-1.1.3-1.9.3-3 0-5.1-2.5-5.1-5.5v-.1c0-2.9 2-5.4 5.1-5.4 3 0 5.1 2.5 5.1 5.5V57.4c5-1.9 8.3-6.5 8.3-11.8v-.1c0-6.9-5.6-12.7-13.4-12.7z"/><path id="XMLID_34_" class="st1" d="M98.6 36c-1.9-2-4.9-3-9.3-3-2.2 0-4.1.2-5.7.6l-3.1 7.5c2.3-1 4.9-1.6 7.4-1.6 3.3 0 4.9 1.5 4.9 3.9v.4c-1.4-.5-3.6-.9-5.9-.9-5.7 0-9.5 2.6-9.5 7.7v.1c0 4.9 3.5 7.5 8.2 7.5 3.2 0 5.5-1.2 7.1-3.1v2.5h8.5v-14c0-3.3-.7-5.8-2.6-7.6zm-5.7 12.8c0 2.4-1.7 4-4.2 4-1.7 0-3-1-3-2.7V50c0-1.8 1.5-3 3.9-3 1.3 0 2.5.3 3.3.6v1.2z"/></g><g id="XMLID_50_"><path id="XMLID_62_" class="st0" d="M106.4 61h4.9v24.8h-2.5V63.5h-3.9l1.5-2.5z"/><path id="XMLID_59_" class="st0" d="M113.6 73.4c0-3.3.3-5.8 1.1-7.6.7-1.8 1.7-3.1 3-4.1 1.3-.9 2.7-1.4 4.3-1.4 1.6 0 3.1.5 4.3 1.4 1.3.9 2.3 2.3 3.1 4.2.7 1.9 1.1 4.3 1.1 7.5 0 3.1-.4 5.6-1.1 7.4-.7 1.9-1.8 3.2-3.1 4.2-1.3.9-2.8 1.4-4.4 1.4-1.6 0-3-.5-4.3-1.3-1.3-.9-2.3-2.3-3-4.1-.6-1.8-1-4.3-1-7.6zm2.3.1c0 2.8.3 4.9.7 6.3.5 1.4 1.3 2.5 2.2 3.3 1 .7 2 1.1 3.1 1.1s2.1-.3 3.1-1.1c.9-.7 1.7-1.8 2.2-3.3.6-1.7.9-3.9.9-6.4 0-2.5-.3-4.5-.8-6.1s-1.3-2.7-2.3-3.5c-1-.7-2-1.1-3.1-1.1s-2.1.4-3.1 1.1c-.9.7-1.7 1.8-2.2 3.3-.4 1.5-.7 3.6-.7 6.4z"/><path id="XMLID_56_" class="st0" d="M141.9 60.4l2.1 1.3-6.7 10.1c.9-.3 1.7-.5 2.5-.5 2 0 3.7.7 5 2.1 1.4 1.4 2.1 3.2 2.1 5.3 0 1.4-.3 2.7-1 3.9s-1.6 2.1-2.8 2.7-2.5 1-3.9 1c-1.3 0-2.6-.3-3.8-1-1.1-.7-2.1-1.6-2.7-2.8-.7-1.2-1-2.5-1-3.8 0-1 .2-2.1.6-3.2.4-1.1 1.1-2.5 2.2-4l7.4-11.1zm-2.7 13.2c-1.5 0-2.7.5-3.7 1.5s-1.5 2.3-1.5 3.7c0 1.5.5 2.7 1.5 3.7s2.3 1.5 3.7 1.5c1.5 0 2.7-.5 3.7-1.5s1.5-2.3 1.5-3.7c0-1.5-.5-2.7-1.5-3.7s-2.3-1.5-3.7-1.5z"/><path id="XMLID_54_" class="st0" d="M151.2 82.1c.6 0 1.1.2 1.5.6s.6.9.6 1.5-.2 1.1-.6 1.5c-.4.4-.9.6-1.5.6s-1.1-.2-1.5-.6c-.4-.4-.6-.9-.6-1.5s.2-1.1.6-1.5.9-.6 1.5-.6z"/><path id="XMLID_51_" class="st0" d="M158.8 86.4l-2.1-1.3 6.7-10.1c-.9.3-1.7.5-2.5.5-2 0-3.7-.7-5-2.1-1.4-1.4-2.1-3.2-2.1-5.3 0-1.4.3-2.7 1-3.9.7-1.1 1.6-2.1 2.8-2.7 1.2-.7 2.5-1 3.9-1s2.7.3 3.8 1c1.1.7 2.1 1.6 2.7 2.8.7 1.2 1 2.5 1 3.8 0 1-.2 2.1-.6 3.2-.4 1.1-1.1 2.5-2.2 4l-7.4 11.1zm2.7-13.1c1.5 0 2.7-.5 3.7-1.5s1.5-2.3 1.5-3.7c0-1.5-.5-2.7-1.5-3.7s-2.3-1.5-3.7-1.5c-1.5 0-2.7.5-3.7 1.5s-1.5 2.3-1.5 3.7c0 1.5.5 2.7 1.5 3.7s2.3 1.5 3.7 1.5z"/></g><g id="XMLID_37_"><path id="XMLID_49_" class="st3" d="M14.3 61.6l-.3-.3v3.5c.1-.1.1-.2.3-.3v-2.9z"/><path id="XMLID_48_" class="st3" d="M29.6 69.8v15.9H21l.3.3h8.5V70c0-3-.9-5.3-2.5-6.9 1.5 1.5 2.3 3.8 2.3 6.7z"/><path id="XMLID_47_" class="st3" d="M14 72.5v13.1H5.5l.3.3h8.5V72.8c0-2.7 1.5-4.1 3.6-4.1.9 0 1.6.3 2.2.8-.6-.7-1.5-1-2.5-1-2-.1-3.6 1.3-3.6 4z"/><path id="XMLID_46_" class="st3" d="M44.2 68.1c-3.1 0-5.1 2.5-5.1 5.4v.1c0 1.6.7 3.1 1.7 4.1-.9-1-1.5-2.4-1.5-3.9v-.1c0-2.9 2-5.4 5.1-5.4 1.3 0 2.5.5 3.5 1.3-1-.9-2.3-1.5-3.7-1.5z"/><path id="XMLID_45_" class="st3" d="M46.2 79v7.1c-.7.1-1.3.1-2 .1-3.9 0-7.2-1.4-9.6-3.7 2.4 2.4 5.8 3.9 9.8 3.9.7 0 1.3-.1 2-.1V79l-.3-.3.1.3z"/><path id="XMLID_44_" class="st3" d="M57.6 73.5c0 5.3-3.2 9.8-8.1 11.7-.1.1-.3.1-.3.1l.3.3c5-1.9 8.3-6.5 8.3-11.8v-.1c0-3.5-1.4-6.7-3.8-8.9 2.3 2.2 3.6 5.3 3.6 8.7z"/><path id="XMLID_43_" class="st3" d="M80.8 69.4c2.3-1 4.9-1.6 7.4-1.6 1.7 0 2.9.4 3.7 1.1-.8-.9-2.1-1.3-4-1.3-2.5 0-5.1.6-7.4 1.6l.3.2z"/><path id="XMLID_42_" class="st3" d="M89.8 75.4c1.1 0 2.3.2 3.1.5v-.1c-.9-.3-2.1-.6-3.3-.6-2.5 0-3.9 1.2-3.9 3v.1c0 .8.3 1.5.9 1.9-.4-.5-.6-1-.6-1.7v-.1c-.2-1.8 1.3-3 3.8-3z"/><path id="XMLID_41_" class="st3" d="M98.8 64.2c1.7 1.7 2.4 4.2 2.4 7.5v14h-8.5l.3.3h8.5V72c0-3.5-.8-6-2.7-7.8z"/><path id="XMLID_40_" class="st3" d="M92.7 83.2c-1.7 1.9-3.9 3.1-7.1 3.1-2.5 0-4.6-.7-6.1-2.1 1.5 1.5 3.7 2.4 6.3 2.4 3.1 0 5.3-1.1 6.9-2.8v-.6z"/><path id="XMLID_39_" class="st3" d="M68.7 75.2l-4.5-13.6-.2-.2v.2l4.6 13.8z"/><path id="XMLID_38_" class="st3" d="M82.2 61.4l-9.8 24.3H64.7l.2.2h7.8l9.7-24.3z"/></g><g id="XMLID_2_"><path id="XMLID_36_" class="st1" d="M21.4 60.8c-3.5 0-5.7 1.9-7.3 3.9v-3.4H5.5v24.3H14v-13c0-2.7 1.5-4.1 3.6-4.1 2 0 3.4 1.5 3.4 4.1v13.1h8.5V69.8c.1-5.6-3-9-8.1-9z"/><path id="XMLID_35_" class="st1" d="M73.3 61.4l-4.7 14-4.6-14h-9l9.7 24.3h7.7l9.8-24.3z"/><path id="XMLID_6_" class="st1" d="M44.2 60.8c-7.8 0-13.5 5.8-13.5 12.7v.1c0 6.9 5.6 12.6 13.4 12.6.7 0 1.3-.1 2-.1v-7.5c-.5.2-1.1.4-1.9.4-3 0-5.1-2.5-5.1-5.5 0-2.9 2-5.4 5.1-5.4 3 0 5.1 2.5 5.1 5.5V85.5c5-1.9 8.3-6.5 8.3-11.8v-.1c0-7-5.6-12.8-13.4-12.8z"/><path id="XMLID_3_" class="st1" d="M98.6 64c-1.9-2-4.9-3-9.3-3-2.2 0-4.1.2-5.7.6l-3.1 7.5c2.3-1 4.9-1.6 7.4-1.6 3.3 0 4.9 1.5 4.9 3.9v.4c-1.4-.5-3.6-.9-5.9-.9-5.7 0-9.5 2.6-9.5 7.7v.1c0 4.9 3.5 7.5 8.2 7.5 3.2 0 5.5-1.2 7.1-3.1v2.5h8.5v-14c0-3.3-.7-5.8-2.6-7.6zm-5.7 12.8c0 2.4-1.7 4-4.2 4-1.7 0-3-1-3-2.7V78c0-1.8 1.5-3 3.9-3 1.3 0 2.5.3 3.3.6v1.2z"/></g><g id="XMLID_84_"><path id="XMLID_93_" class="st0" d="M111.9 30.6l-2.1-1.3 6.7-10.1c-.9.3-1.7.5-2.5.5-2 0-3.7-.7-5-2.1-1.4-1.4-2.1-3.2-2.1-5.3 0-1.4.3-2.7 1-3.9.7-1.1 1.6-2.1 2.8-2.7s2.5-1 3.9-1 2.7.3 3.8 1c1.1.7 2.1 1.6 2.7 2.8s1 2.5 1 3.8c0 1-.2 2.1-.6 3.2-.4 1.1-1.1 2.5-2.2 4l-7.4 11.1zm2.7-13.2c1.5 0 2.7-.5 3.7-1.5s1.5-2.3 1.5-3.7c0-1.5-.5-2.7-1.5-3.7S116 7 114.6 7c-1.5 0-2.7.5-3.7 1.5s-1.5 2.3-1.5 3.7c0 1.5.5 2.7 1.5 3.7 1 .9 2.3 1.5 3.7 1.5z"/><path id="XMLID_90_" class="st0" d="M132.6 4.5l2.1 1.3L128 16c.9-.3 1.7-.5 2.5-.5 2 0 3.7.7 5 2.1 1.4 1.4 2.1 3.2 2.1 5.3 0 1.4-.3 2.7-1 3.9-.7 1.1-1.6 2.1-2.8 2.7s-2.5 1-3.9 1c-1.3 0-2.6-.3-3.8-1-1.1-.7-2.1-1.6-2.7-2.8-.7-1.2-1-2.5-1-3.8 0-1 .2-2.1.6-3.2.4-1.1 1.1-2.5 2.2-4l7.4-11.2zm-2.7 13.2c-1.5 0-2.7.5-3.7 1.5s-1.5 2.3-1.5 3.7c0 1.5.5 2.7 1.5 3.7s2.3 1.5 3.7 1.5c1.5 0 2.7-.5 3.7-1.5s1.5-2.3 1.5-3.7c0-1.5-.5-2.7-1.5-3.7s-2.3-1.5-3.7-1.5z"/><path id="XMLID_88_" class="st0" d="M141.9 26.2c.6 0 1.1.2 1.5.6.4.4.6.9.6 1.5s-.2 1.1-.6 1.5c-.4.4-.9.6-1.5.6s-1.1-.2-1.5-.6c-.4-.4-.6-.9-.6-1.5s.2-1.1.6-1.5c.5-.4.9-.6 1.5-.6z"/><path id="XMLID_85_" class="st0" d="M149.5 30.6l-2.1-1.3 6.7-10.1c-.9.3-1.7.5-2.5.5-2 0-3.7-.7-5-2.1-1.4-1.4-2.1-3.2-2.1-5.3 0-1.4.3-2.7 1-3.9s1.6-2.1 2.8-2.7c1.2-.7 2.5-1 3.9-1s2.7.3 3.8 1c1.1.7 2.1 1.6 2.7 2.8s1 2.5 1 3.8c0 1-.2 2.1-.6 3.2-.4 1.1-1.1 2.5-2.2 4l-7.4 11.1zm2.7-13.2c1.5 0 2.7-.5 3.7-1.5s1.5-2.3 1.5-3.7c0-1.5-.5-2.7-1.5-3.7S153.6 7 152.2 7c-1.5 0-2.7.5-3.7 1.5s-1.5 2.3-1.5 3.7c0 1.5.5 2.7 1.5 3.7s2.2 1.5 3.7 1.5z"/></g><g id="XMLID_71_"><path id="XMLID_83_" class="st3" d="M14.3 5.7l-.3-.3v3.4c.1-.1.1-.2.3-.3V5.7z"/><path id="XMLID_82_" class="st3" d="M29.6 13.8v15.9H21l.3.3h8.5V14.1c0-3-.9-5.3-2.5-6.9 1.5 1.6 2.3 3.8 2.3 6.6z"/><path id="XMLID_81_" class="st3" d="M14 16.6v13.1H5.5l.3.3h8.5V16.8c0-2.7 1.5-4.1 3.6-4.1.9 0 1.6.3 2.2.8-.6-.7-1.5-1-2.5-1-2 0-3.6 1.4-3.6 4.1z"/><path id="XMLID_80_" class="st3" d="M44.2 12.2c-3.1 0-5.1 2.5-5.1 5.4v.1c0 1.6.7 3.1 1.7 4.1-.9-1-1.5-2.4-1.5-3.9v-.1c0-2.9 2-5.4 5.1-5.4 1.3 0 2.5.5 3.5 1.3-1-.9-2.3-1.5-3.7-1.5z"/><path id="XMLID_79_" class="st3" d="M46.2 23.1v7.1c-.7.1-1.3.1-2 .1-3.9 0-7.2-1.4-9.6-3.7 2.4 2.4 5.8 3.9 9.8 3.9.7 0 1.3-.1 2-.1V23l-.3-.3.1.4z"/><path id="XMLID_78_" class="st3" d="M57.6 17.6c0 5.3-3.2 9.8-8.1 11.7-.1.1-.3.1-.3.1l.3.3c5-1.9 8.3-6.5 8.3-11.8v-.1c0-3.5-1.4-6.7-3.8-8.9 2.3 2.3 3.6 5.3 3.6 8.7z"/><path id="XMLID_77_" class="st3" d="M80.8 13.5c2.3-1 4.9-1.6 7.4-1.6 1.7 0 2.9.4 3.7 1.1-.8-.9-2.1-1.3-4-1.3-2.5 0-5.1.6-7.4 1.6l.3.2z"/><path id="XMLID_76_" class="st3" d="M89.8 19.4c1.1 0 2.3.2 3.1.5v-.1c-.9-.3-2.1-.6-3.3-.6-2.5 0-3.9 1.2-3.9 3v.1c0 .8.3 1.5.9 1.9-.4-.5-.6-1-.6-1.7v-.1c-.2-1.8 1.3-3 3.8-3z"/><path id="XMLID_75_" class="st3" d="M98.8 8.3c1.7 1.7 2.4 4.2 2.4 7.5v14h-8.5l.3.3h8.5v-14c0-3.5-.8-6-2.7-7.8z"/><path id="XMLID_74_" class="st3" d="M92.7 27.2c-1.7 1.9-3.9 3.1-7.1 3.1-2.5 0-4.6-.7-6.1-2.1 1.5 1.5 3.7 2.4 6.3 2.4 3.1 0 5.3-1.1 6.9-2.8v-.6z"/><path id="XMLID_73_" class="st3" d="M68.7 19.3L64.2 5.6l-.2-.2v.2l4.6 13.9z"/><path id="XMLID_72_" class="st3" d="M82.2 5.4l-9.8 24.4H64.7l.2.2h7.8l9.7-24.4z"/></g><g id="XMLID_64_"><path id="XMLID_70_" class="st1" d="M21.4 4.9c-3.5 0-5.7 1.9-7.3 3.9V5.4H5.5v24.3H14V16.6c0-2.7 1.5-4.1 3.6-4.1 2 0 3.4 1.5 3.4 4.1v13.1h8.5V13.8c.1-5.5-3-8.9-8.1-8.9z"/><path id="XMLID_69_" class="st1" d="M73.3 5.4l-4.7 14.1L64 5.4h-9l9.7 24.4h7.7l9.8-24.4z"/><path id="XMLID_68_" class="st1" d="M44.2 5c-7.8 0-13.5 5.8-13.5 12.7v.1c0 6.9 5.6 12.6 13.4 12.6.7 0 1.3-.1 2-.1v-7.5c-.6.2-1.2.3-1.9.3-3 0-5.1-2.5-5.1-5.5v-.1c0-2.9 2-5.4 5.1-5.4 3 0 5.1 2.5 5.1 5.5V29.5c5-1.9 8.3-6.5 8.3-11.8v-.1C57.6 10.6 52 5 44.2 5z"/><path id="XMLID_65_" class="st1" d="M98.6 8c-1.9-1.9-4.9-2.9-9.3-2.9-2.2 0-4.1.2-5.7.6l-3.1 7.5c2.3-1 4.9-1.6 7.4-1.6 3.3 0 4.9 1.5 4.9 3.9v.5c-1.4-.5-3.6-.9-5.9-.9-5.7 0-9.5 2.6-9.5 7.7v.1c0 4.9 3.5 7.5 8.2 7.5 3.2 0 5.5-1.2 7.1-3.1v2.5h8.5v-14c0-3.4-.7-6-2.6-7.8zm-5.7 13c0 2.4-1.7 4-4.2 4-1.7 0-3-1-3-2.7v-.1c0-1.8 1.5-3 3.9-3 1.3 0 2.5.3 3.3.6V21z"/></g><g><g id="XMLID_116_"><path id="XMLID_123_" class="st0" d="M111.7 142.5l-2.1-1.3 6.7-10.1c-.9.3-1.7.5-2.5.5-2 0-3.7-.7-5-2.1-1.4-1.4-2.1-3.2-2.1-5.3 0-1.4.3-2.7 1-3.9s1.6-2.1 2.8-2.7c1.2-.7 2.5-1 3.9-1s2.7.3 3.8 1c1.1.7 2.1 1.6 2.7 2.8.7 1.2 1 2.5 1 3.8 0 1-.2 2.1-.6 3.2-.4 1.1-1.1 2.5-2.2 4l-7.4 11.1zm2.8-13.2c1.5 0 2.7-.5 3.7-1.5s1.5-2.3 1.5-3.7c0-1.5-.5-2.7-1.5-3.7s-2.3-1.5-3.7-1.5c-1.5 0-2.7.5-3.7 1.5s-1.5 2.3-1.5 3.7c0 1.5.5 2.7 1.5 3.7s2.2 1.5 3.7 1.5z"/><path id="XMLID_121_" class="st0" d="M126.1 122.9h-2.5c.5-2.1 1.3-3.6 2.7-4.7 1.3-1.1 2.9-1.7 4.6-1.7 1.3 0 2.5.3 3.6.9 1.1.6 2 1.4 2.6 2.4.6 1 .9 2.1.9 3.1 0 2.1-1.1 3.8-3.2 5.1 1.2.5 2.1 1.2 2.9 2.1 1.1 1.3 1.6 2.8 1.6 4.4 0 1.4-.4 2.7-1.1 4s-1.7 2.3-3 2.9-2.7 1.1-4.3 1.1c-2.1 0-3.9-.6-5.3-1.9-1.4-1.2-2.3-3.1-2.8-5.4h2.4c.4 1.6 1.1 2.8 1.9 3.5 1 .9 2.3 1.3 3.9 1.3 1.8 0 3.3-.5 4.3-1.6 1.1-1.1 1.7-2.3 1.7-3.8 0-.9-.3-1.9-.8-2.7-.5-.9-1.3-1.5-2.2-1.9-.9-.4-2.3-.7-4.3-.8v-2.3c1.1 0 2.1-.2 3.1-.6s1.6-.9 2-1.5c.4-.6.6-1.3.6-2 0-1.1-.4-2-1.3-2.8-.9-.8-1.9-1.2-3.3-1.2-1.1 0-2 .3-2.7.9-.8.7-1.4 1.7-2 3.2z"/><path id="XMLID_119_" class="st0" d="M143.5 138.1c.6 0 1.1.2 1.5.6.4.4.6.9.6 1.5s-.2 1.1-.6 1.5c-.4.4-.9.6-1.5.6s-1.1-.2-1.5-.6c-.4-.4-.6-.9-.6-1.5s.2-1.1.6-1.5c.5-.4.9-.6 1.5-.6z"/><path id="XMLID_117_" class="st0" d="M148 117.1h15.7l-13.3 25.4-2.1-1.1 11.5-22H148v-2.3z"/></g><g id="XMLID_103_"><path id="XMLID_115_" class="st2" d="M14.3 117.6l-.3-.3v3.5c.1-.1.1-.2.3-.3v-2.9z"/><path id="XMLID_114_" class="st2" d="M29.6 125.8v15.9H21l.3.3h8.5v-15.9c0-3-.9-5.3-2.5-6.9 1.5 1.5 2.3 3.7 2.3 6.6z"/><path id="XMLID_113_" class="st2" d="M14 128.5v13.1H5.5l.3.3h8.5v-13.1c0-2.7 1.5-4.1 3.6-4.1.9 0 1.6.3 2.2.8-.6-.7-1.5-1-2.5-1-2 0-3.6 1.4-3.6 4z"/><path id="XMLID_112_" class="st2" d="M44.2 124.1c-3.1 0-5.1 2.5-5.1 5.4v.1c0 1.6.7 3.1 1.7 4.1-.9-1-1.5-2.4-1.5-3.9v-.1c0-2.9 2-5.4 5.1-5.4 1.3 0 2.5.5 3.5 1.3-1-.9-2.3-1.5-3.7-1.5z"/><path id="XMLID_111_" class="st2" d="M46.2 135.1v7.1c-.7.1-1.3.1-2 .1-3.9 0-7.2-1.4-9.6-3.7 2.4 2.4 5.8 3.9 9.8 3.9.7 0 1.3-.1 2-.1V135l-.3-.3.1.4z"/><path id="XMLID_110_" class="st2" d="M57.6 129.5c0 5.3-3.2 9.8-8.1 11.7-.1.1-.3.1-.3.1l.3.3c5-1.9 8.3-6.5 8.3-11.8v-.1c0-3.5-1.4-6.7-3.8-8.9 2.3 2.3 3.6 5.3 3.6 8.7z"/><path id="XMLID_109_" class="st2" d="M80.8 125.4c2.3-1 4.9-1.6 7.4-1.6 1.7 0 2.9.4 3.7 1.1-.8-.9-2.1-1.3-4-1.3-2.5 0-5.1.6-7.4 1.6l.3.2z"/><path id="XMLID_108_" class="st2" d="M89.8 131.4c1.1 0 2.3.2 3.1.5v-.1c-.9-.3-2.1-.6-3.3-.6-2.5 0-3.9 1.2-3.9 3v.1c0 .8.3 1.5.9 1.9-.4-.5-.6-1-.6-1.7v-.1c-.2-1.8 1.3-3 3.8-3z"/><path id="XMLID_107_" class="st2" d="M98.8 120.3c1.7 1.7 2.4 4.2 2.4 7.5v14h-8.5l.3.3h8.5v-14c0-3.6-.8-6-2.7-7.8z"/><path id="XMLID_106_" class="st2" d="M92.7 139.2c-1.7 1.9-3.9 3.1-7.1 3.1-2.5 0-4.6-.7-6.1-2.1 1.5 1.5 3.7 2.4 6.3 2.4 3.1 0 5.3-1.1 6.9-2.8v-.6z"/><path id="XMLID_105_" class="st2" d="M68.7 131.3l-4.5-13.7-.2-.2v.2l4.6 13.9z"/><path id="XMLID_104_" class="st2" d="M82.2 117.4l-9.8 24.3H64.7l.2.2h7.8l9.7-24.3z"/></g><g id="XMLID_96_"><path id="XMLID_102_" class="st1" d="M21.4 116.9c-3.5 0-5.7 1.9-7.3 3.9v-3.4H5.5v24.3H14v-13.1c0-2.7 1.5-4.1 3.6-4.1 2 0 3.4 1.5 3.4 4.1v13.1h8.5v-15.9c.1-5.5-3-8.9-8.1-8.9z"/><path id="XMLID_101_" class="st1" d="M73.3 117.4l-4.7 14.1-4.6-14.1h-9l9.7 24.3h7.7l9.8-24.3z"/><path id="XMLID_100_" class="st1" d="M44.2 116.9c-7.8 0-13.5 5.8-13.5 12.7v.1c0 6.9 5.6 12.6 13.4 12.6.7 0 1.3-.1 2-.1v-7.5c-.6.2-1.2.3-1.9.3-3 0-5.1-2.5-5.1-5.5 0-2.9 2-5.4 5.1-5.4 3 0 5.1 2.5 5.1 5.5V141.5c5-1.9 8.3-6.5 8.3-11.8v-.1c0-7-5.6-12.7-13.4-12.7z"/><path id="XMLID_97_" class="st1" d="M98.6 120c-1.9-1.9-4.9-2.9-9.3-2.9-2.2 0-4.1.2-5.7.6l-3.1 7.5c2.3-1 4.9-1.6 7.4-1.6 3.3 0 4.9 1.5 4.9 3.9v.4c-1.4-.5-3.6-.9-5.9-.9-5.7 0-9.5 2.6-9.5 7.7v.1c0 4.9 3.5 7.5 8.2 7.5 3.2 0 5.5-1.2 7.1-3.1v2.5h8.5v-14c0-3.4-.7-5.9-2.6-7.7zm-5.7 12.9c0 2.4-1.7 4-4.2 4-1.7 0-3-1-3-2.7v-.1c0-1.8 1.5-3 3.9-3 1.3 0 2.5.3 3.3.6v1.2z"/></g></g><g><g id="XMLID_146_"><path id="XMLID_152_" class="st0" d="M111.7 114.5l-2.1-1.3 6.7-10.1c-.9.3-1.7.5-2.5.5-2 0-3.7-.7-5-2.1-1.4-1.4-2.1-3.2-2.1-5.3 0-1.4.3-2.7 1-3.9s1.6-2.1 2.8-2.7c1.2-.7 2.5-1 3.9-1s2.7.3 3.8 1 2.1 1.6 2.7 2.8c.7 1.2 1 2.5 1 3.8 0 1-.2 2.1-.6 3.2-.4 1.1-1.1 2.5-2.2 4l-7.4 11.1zm2.8-13.2c1.5 0 2.7-.5 3.7-1.5s1.5-2.3 1.5-3.7c0-1.5-.5-2.7-1.5-3.7s-2.3-1.5-3.7-1.5c-1.5 0-2.7.5-3.7 1.5s-1.5 2.3-1.5 3.7c0 1.5.5 2.7 1.5 3.7s2.2 1.5 3.7 1.5z"/><path id="XMLID_150_" class="st0" d="M125.8 89h4.9v24.8h-2.5V91.5h-3.9l1.5-2.5z"/><path id="XMLID_147_" class="st0" d="M140.1 114.5l-2.1-1.3 6.7-10.1c-.9.3-1.7.5-2.5.5-2 0-3.7-.7-5-2.1-1.4-1.4-2.1-3.2-2.1-5.3 0-1.4.3-2.7 1-3.9s1.6-2.1 2.8-2.7c1.2-.7 2.5-1 3.9-1s2.7.3 3.8 1c1.1.7 2.1 1.6 2.7 2.8s1 2.5 1 3.8c0 1-.2 2.1-.6 3.2-.4 1.1-1.1 2.5-2.2 4l-7.4 11.1zm2.7-13.2c1.5 0 2.7-.5 3.7-1.5s1.5-2.3 1.5-3.7c0-1.5-.5-2.7-1.5-3.7s-2.3-1.5-3.7-1.5c-1.5 0-2.7.5-3.7 1.5s-1.5 2.3-1.5 3.7c0 1.5.5 2.7 1.5 3.7s2.3 1.5 3.7 1.5z"/></g><g id="XMLID_133_"><path id="XMLID_145_" class="st2" d="M14.3 89.6l-.3-.3v3.5c.1-.1.1-.2.3-.3v-2.9z"/><path id="XMLID_144_" class="st2" d="M29.6 97.8v15.9H21l.3.3h8.5V98.1c0-3-.9-5.3-2.5-6.9 1.5 1.5 2.3 3.7 2.3 6.6z"/><path id="XMLID_143_" class="st2" d="M14 100.5v13.1H5.5l.3.3h8.5v-13.1c0-2.7 1.5-4.1 3.6-4.1.9 0 1.6.3 2.2.8-.6-.7-1.5-1-2.5-1-2 0-3.6 1.4-3.6 4z"/><path id="XMLID_142_" class="st2" d="M44.2 96.1c-3.1 0-5.1 2.5-5.1 5.4v.1c0 1.6.7 3.1 1.7 4.1-.9-1-1.5-2.4-1.5-3.9v-.1c0-2.9 2-5.4 5.1-5.4 1.3 0 2.5.5 3.5 1.3-1-.9-2.3-1.5-3.7-1.5z"/><path id="XMLID_141_" class="st2" d="M46.2 107.1v7.1c-.7.1-1.3.1-2 .1-3.9 0-7.2-1.4-9.6-3.7 2.4 2.4 5.8 3.9 9.8 3.9.7 0 1.3-.1 2-.1V107l-.3-.3.1.4z"/><path id="XMLID_140_" class="st2" d="M57.6 101.5c0 5.3-3.2 9.8-8.1 11.7-.1.1-.3.1-.3.1l.3.3c5-1.9 8.3-6.5 8.3-11.8v-.1c0-3.5-1.4-6.7-3.8-8.9 2.3 2.3 3.6 5.3 3.6 8.7z"/><path id="XMLID_139_" class="st2" d="M80.8 97.4c2.3-1 4.9-1.6 7.4-1.6 1.7 0 2.9.4 3.7 1.1-.8-.9-2.1-1.3-4-1.3-2.5 0-5.1.6-7.4 1.6l.3.2z"/><path id="XMLID_138_" class="st2" d="M89.8 103.4c1.1 0 2.3.2 3.1.5v-.1c-.9-.3-2.1-.6-3.3-.6-2.5 0-3.9 1.2-3.9 3v.1c0 .8.3 1.5.9 1.9-.4-.5-.6-1-.6-1.7v-.1c-.2-1.8 1.3-3 3.8-3z"/><path id="XMLID_137_" class="st2" d="M98.8 92.3c1.7 1.7 2.4 4.2 2.4 7.5v14h-8.5l.3.3h8.5v-14c0-3.6-.8-6-2.7-7.8z"/><path id="XMLID_136_" class="st2" d="M92.7 111.2c-1.7 1.9-3.9 3.1-7.1 3.1-2.5 0-4.6-.7-6.1-2.1 1.5 1.5 3.7 2.4 6.3 2.4 3.1 0 5.3-1.1 6.9-2.8v-.6z"/><path id="XMLID_135_" class="st2" d="M68.7 103.3l-4.5-13.7-.2-.2v.2l4.6 13.9z"/><path id="XMLID_134_" class="st2" d="M82.2 89.4l-9.8 24.3H64.7l.2.2h7.8l9.7-24.3z"/></g><g id="XMLID_126_"><path id="XMLID_132_" class="st1" d="M21.4 88.8c-3.5 0-5.7 1.9-7.3 3.9v-3.4H5.5v24.3H14v-13.1c0-2.7 1.5-4.1 3.6-4.1 2 0 3.4 1.5 3.4 4.1v13.1h8.5V97.8c.1-5.5-3-9-8.1-9z"/><path id="XMLID_131_" class="st1" d="M73.3 89.4l-4.7 14.1L64 89.4h-9l9.7 24.3h7.7l9.8-24.3z"/><path id="XMLID_130_" class="st1" d="M44.2 88.8c-7.8 0-13.5 5.8-13.5 12.7v.1c0 6.9 5.6 12.6 13.4 12.6.7 0 1.3-.1 2-.1v-7.5c-.6.2-1.2.3-1.9.3-3 0-5.1-2.5-5.1-5.5 0-2.9 2-5.4 5.1-5.4 3 0 5.1 2.5 5.1 5.5V113.4c5-1.9 8.3-6.5 8.3-11.8v-.1c0-6.9-5.6-12.7-13.4-12.7z"/><path id="XMLID_127_" class="st1" d="M98.6 92c-1.9-2-4.9-3-9.3-3-2.2 0-4.1.2-5.7.6l-3.1 7.5c2.3-1 4.9-1.6 7.4-1.6 3.3 0 4.9 1.5 4.9 3.9v.4c-1.4-.5-3.6-.9-5.9-.9-5.7 0-9.5 2.6-9.5 7.7v.1c0 4.9 3.5 7.5 8.2 7.5 3.2 0 5.5-1.2 7.1-3.1v2.5h8.5v-14c0-3.3-.7-5.8-2.6-7.6zm-5.7 12.9c0 2.4-1.7 4-4.2 4-1.7 0-3-1-3-2.7v-.1c0-1.8 1.5-3 3.9-3 1.3 0 2.5.3 3.3.6v1.2z"/></g></g><g><g id="XMLID_175_"><path id="XMLID_182_" class="st0" d="M221.7 77.5h4.1v20.7h-2.1V79.5h-3.2l1.2-2z"/><path id="XMLID_179_" class="st0" d="M227.8 87.9c0-2.7.3-4.9.9-6.3s1.4-2.6 2.5-3.4c1.1-.8 2.3-1.1 3.6-1.1 1.3 0 2.5.4 3.7 1.1 1.1.8 1.9 1.9 2.6 3.5.6 1.5.9 3.6.9 6.2s-.3 4.7-.9 6.2c-.6 1.5-1.5 2.7-2.6 3.5-1.1.8-2.3 1.2-3.7 1.2-1.3 0-2.5-.4-3.6-1.1s-1.9-1.9-2.5-3.4c-.6-1.6-.9-3.7-.9-6.4zm1.9 0c0 2.3.2 4.1.6 5.3.4 1.2 1 2.1 1.9 2.7.8.6 1.7.9 2.6.9.9 0 1.8-.3 2.6-.9s1.4-1.5 1.8-2.7c.5-1.5.8-3.3.8-5.3s-.2-3.8-.7-5.1c-.5-1.3-1.1-2.3-1.9-2.9-.8-.6-1.7-.9-2.5-.9-.9 0-1.8.3-2.6.9-.8.6-1.4 1.5-1.9 2.7-.5 1.2-.7 3-.7 5.3z"/><path id="XMLID_176_" class="st0" d="M243.1 87.9c0-2.7.3-4.9.9-6.3s1.4-2.6 2.5-3.4c1.1-.8 2.3-1.1 3.6-1.1 1.3 0 2.5.4 3.7 1.1 1.1.8 1.9 1.9 2.6 3.5.6 1.5.9 3.6.9 6.2s-.3 4.7-.9 6.2c-.6 1.5-1.5 2.7-2.6 3.5-1.1.8-2.3 1.2-3.7 1.2-1.3 0-2.5-.4-3.6-1.1s-1.9-1.9-2.5-3.4c-.6-1.6-.9-3.7-.9-6.4zm1.9 0c0 2.3.2 4.1.6 5.3.4 1.2 1 2.1 1.9 2.7.9.6 1.7.9 2.6.9.9 0 1.8-.3 2.6-.9.8-.6 1.4-1.5 1.8-2.7.5-1.5.8-3.3.8-5.3s-.2-3.8-.7-5.1c-.5-1.3-1.1-2.3-1.9-2.9-.8-.6-1.7-.9-2.5-.9-.9 0-1.8.3-2.6.9-.8.6-1.4 1.5-1.9 2.7-.4 1.2-.7 3-.7 5.3z"/></g><g id="XMLID_162_"><path id="XMLID_174_" class="st2" d="M184.1 54l-.2-.2V56.7c.1-.1.1-.1.2-.3V54z"/><path id="XMLID_173_" class="st2" d="M196.9 60.9v13.3H189.8l.2.2h7.1V61.1c0-2.5-.7-4.5-2.1-5.7 1.2 1.2 1.9 3.1 1.9 5.5z"/><path id="XMLID_172_" class="st2" d="M183.9 63.2v11H176.8l.2.2h7.1v-11c0-2.2 1.3-3.4 3-3.4.7 0 1.3.2 1.9.7-.5-.5-1.2-.9-2-.9-1.8 0-3.1 1.2-3.1 3.4z"/><path id="XMLID_171_" class="st2" d="M209 59.5c-2.6 0-4.3 2.1-4.3 4.5v.1c0 1.3.5 2.6 1.5 3.5-.8-.9-1.3-2-1.3-3.3v-.1c0-2.5 1.7-4.5 4.3-4.5 1.1 0 2.1.4 2.9 1.1-.8-.8-1.8-1.3-3.1-1.3z"/><path id="XMLID_170_" class="st2" d="M210.7 68.6v5.9c-.5.1-1.1.1-1.7.1-3.2 0-6-1.2-8-3.1 2 2 4.9 3.3 8.2 3.3.6 0 1.1-.1 1.7-.1v-6.2l-.2-.2v.3z"/><path id="XMLID_169_" class="st2" d="M220.3 64c0 4.4-2.7 8.2-6.7 9.8-.1.1-.2.1-.2.1l.2.2c4.2-1.6 6.9-5.5 6.9-9.9 0-2.9-1.2-5.5-3.2-7.5 1.9 1.9 3 4.5 3 7.3z"/><path id="XMLID_168_" class="st2" d="M239.6 60.6c1.9-.9 4.1-1.3 6.2-1.3 1.4 0 2.5.3 3.1.9-.7-.7-1.7-1.1-3.3-1.1-2.1 0-4.3.5-6.2 1.3l.2.2z"/><path id="XMLID_167_" class="st2" d="M247.1 65.6c.9 0 1.9.2 2.6.5V66c-.7-.3-1.7-.5-2.8-.5-2.1 0-3.3 1-3.3 2.5 0 .7.3 1.3.7 1.6-.3-.3-.5-.9-.5-1.4v-.1c.1-1.5 1.3-2.5 3.3-2.5z"/><path id="XMLID_166_" class="st2" d="M254.7 56.2c1.4 1.4 2 3.5 2 6.3v11.7H249.6l.2.2h7.1V62.7c-.1-2.9-.7-4.9-2.2-6.5z"/><path id="XMLID_165_" class="st2" d="M249.6 72.1c-1.4 1.5-3.3 2.5-5.9 2.5-2 0-3.8-.6-5.1-1.8 1.3 1.3 3.1 2 5.3 2 2.5 0 4.4-.9 5.7-2.3v-.4z"/><path id="XMLID_164_" class="st2" d="M229.5 65.4L225.7 54l-.2-.2.1.2 3.9 11.6z"/><path id="XMLID_163_" class="st2" d="M240.7 53.8l-8 20.4H226.1l.2.2h6.6l8-20.4z"/></g><g id="XMLID_155_"><path id="XMLID_161_" class="st1" d="M190 53.4c-2.9 0-4.7 1.6-6.1 3.3v-2.9h-7.1v20.3h7.1v-11c0-2.2 1.3-3.4 3-3.4s2.9 1.2 2.9 3.4v11h7.1V60.9c0-4.7-2.6-7.5-6.9-7.5z"/><path id="XMLID_160_" class="st1" d="M233.3 53.8l-3.8 11.8-4-11.8h-7.4l8 20.4h6.6l8-20.4z"/><path id="XMLID_159_" class="st1" d="M209.1 53.4c-6.5 0-11.3 4.9-11.3 10.6v.1c0 5.8 4.7 10.5 11.2 10.5.6 0 1.1-.1 1.7-.1v-6.2c-.5.2-1 .3-1.6.3-2.5 0-4.3-2.1-4.3-4.6 0-2.5 1.7-4.5 4.3-4.5 2.5 0 4.3 2.1 4.3 4.6V74c4.2-1.6 6.9-5.5 6.9-9.9V64c0-5.8-4.7-10.6-11.2-10.6z"/><path id="XMLID_156_" class="st1" d="M254.5 56c-1.6-1.6-4.1-2.5-7.7-2.5-1.9 0-3.4.2-4.8.5l-2.5 6.3c1.9-.9 4.1-1.3 6.2-1.3 2.7 0 4.1 1.2 4.1 3.3v.3c-1.1-.4-3-.8-4.9-.8-4.7 0-7.9 2.2-7.9 6.4v.1c0 4.1 2.9 6.3 6.8 6.3 2.7 0 4.6-1 5.9-2.5v2.1h7.1V62.5c-.2-2.9-.8-4.9-2.3-6.5zm-4.8 10.8c0 2-1.5 3.3-3.5 3.3-1.5 0-2.5-.8-2.5-2.2v-.1c0-1.5 1.2-2.5 3.3-2.5 1.1 0 2.1.2 2.8.5l-.1 1z"/></g></g><g><g id="XMLID_204_"><path id="XMLID_210_" class="st0" d="M225 194.9l-1.7-1.1 5.6-8.5c-.7.3-1.5.4-2.1.4-1.7 0-3.1-.6-4.2-1.8-1.1-1.2-1.7-2.7-1.7-4.4 0-1.2.3-2.3.8-3.2.5-.9 1.3-1.7 2.3-2.3 1-.6 2.1-.9 3.3-.9 1.1 0 2.2.3 3.2.8s1.7 1.3 2.3 2.3c.5 1 .8 2.1.8 3.2 0 .9-.2 1.7-.5 2.7-.3.9-.9 2.1-1.9 3.4l-6.2 9.4zm2.3-11c1.2 0 2.3-.4 3.1-1.3.9-.9 1.3-1.9 1.3-3.1 0-1.2-.4-2.2-1.3-3.1-.9-.9-1.9-1.3-3.1-1.3-1.2 0-2.2.4-3.1 1.3-.9.9-1.3 1.9-1.3 3.1 0 1.2.4 2.2 1.3 3.1.9.9 1.9 1.3 3.1 1.3z"/><path id="XMLID_208_" class="st0" d="M236.8 173.7h4.1v20.7h-2.1v-18.7h-3.3l1.3-2z"/><path id="XMLID_205_" class="st0" d="M248.7 194.9l-1.7-1.1 5.6-8.5c-.7.3-1.5.4-2.1.4-1.7 0-3.1-.6-4.2-1.8-1.1-1.2-1.7-2.7-1.7-4.4 0-1.2.3-2.3.8-3.2.5-.9 1.3-1.7 2.3-2.3 1-.6 2.1-.9 3.3-.9 1.1 0 2.2.3 3.2.8s1.7 1.3 2.3 2.3c.5 1 .8 2.1.8 3.2 0 .9-.2 1.7-.5 2.7-.3.9-.9 2.1-1.9 3.4l-6.2 9.4zm2.2-11c1.2 0 2.3-.4 3.1-1.3.9-.9 1.3-1.9 1.3-3.1 0-1.2-.4-2.2-1.3-3.1-.9-.9-1.9-1.3-3.1-1.3-1.2 0-2.2.4-3.1 1.3-.9.9-1.3 1.9-1.3 3.1 0 1.2.4 2.2 1.3 3.1.9.9 1.9 1.3 3.1 1.3z"/></g><g id="XMLID_191_"><path id="XMLID_203_" class="st2" d="M183.9 150.4l-.2-.2V153.1c.1-.1.1-.1.2-.3v-2.4z"/><path id="XMLID_202_" class="st2" d="M196.7 157.3v13.3H189.6l.2.2h7.1v-13.3c0-2.5-.7-4.5-2.1-5.7 1.1 1.2 1.9 3.1 1.9 5.5z"/><path id="XMLID_201_" class="st2" d="M183.7 159.5v11H176.6l.2.2h7.1v-11c0-2.2 1.3-3.4 3-3.4.7 0 1.3.2 1.9.7-.5-.5-1.2-.9-2-.9-1.9 0-3.1 1.2-3.1 3.4z"/><path id="XMLID_200_" class="st2" d="M208.8 155.9c-2.6 0-4.3 2.1-4.3 4.5v.1c0 1.3.5 2.6 1.5 3.5-.8-.9-1.3-2-1.3-3.3v-.1c0-2.5 1.7-4.5 4.3-4.5 1.1 0 2.1.4 2.9 1.1-.8-.8-1.9-1.3-3.1-1.3z"/><path id="XMLID_199_" class="st2" d="M210.5 165v5.9c-.5.1-1.1.1-1.7.1-3.2 0-6-1.2-8-3.1 2 2 4.9 3.3 8.2 3.3.6 0 1.1-.1 1.7-.1v-6.2l-.2-.2v.3z"/><path id="XMLID_198_" class="st2" d="M220.1 160.3c0 4.4-2.7 8.2-6.7 9.8-.1.1-.2.1-.2.1l.2.2c4.2-1.6 6.9-5.5 6.9-9.9v-.1c0-2.9-1.2-5.5-3.2-7.5 1.8 2.1 3 4.6 3 7.4z"/><path id="XMLID_197_" class="st2" d="M239.3 156.9c1.9-.9 4.1-1.3 6.2-1.3 1.4 0 2.5.3 3.1.9-.7-.7-1.7-1.1-3.3-1.1-2.1 0-4.3.5-6.2 1.3l.2.2z"/><path id="XMLID_196_" class="st2" d="M246.9 161.9c.9 0 1.9.2 2.6.5v-.1c-.7-.3-1.7-.5-2.8-.5-2.1 0-3.3 1-3.3 2.5v.1c0 .7.3 1.3.7 1.6-.3-.3-.5-.9-.5-1.4v-.1c0-1.6 1.2-2.6 3.3-2.6z"/><path id="XMLID_195_" class="st2" d="M254.4 152.6c1.4 1.4 2 3.5 2 6.3v11.7H249.3l.2.2h7.1v-11.7c0-2.9-.7-5-2.2-6.5z"/><path id="XMLID_194_" class="st2" d="M249.3 168.5c-1.4 1.5-3.3 2.5-5.9 2.5-2 0-3.8-.6-5.1-1.8 1.3 1.3 3.1 2 5.3 2 2.5 0 4.4-.9 5.7-2.3v-.4z"/><path id="XMLID_193_" class="st2" d="M229.3 161.8l-3.8-11.4-.2-.2.1.2 3.8 11.6z"/><path id="XMLID_192_" class="st2" d="M240.5 150.2l-8.1 20.3h-6.5l.2.2h6.5l8.1-20.3z"/></g><g id="XMLID_184_"><path id="XMLID_190_" class="st1" d="M189.7 149.8c-2.9 0-4.7 1.6-6.1 3.3v-2.9h-7.1v20.3h7.1v-10.9c0-2.2 1.3-3.4 3-3.4s2.9 1.2 2.9 3.4v11h7.1v-13.3c.1-4.7-2.5-7.5-6.9-7.5z"/><path id="XMLID_189_" class="st1" d="M233.1 150.2l-3.9 11.8-3.9-11.8h-7.5l8.1 20.3h6.5l8.1-20.3z"/><path id="XMLID_188_" class="st1" d="M208.9 149.8c-6.5 0-11.3 4.9-11.3 10.6v.1c0 5.8 4.7 10.5 11.2 10.5.6 0 1.1-.1 1.7-.1v-6.2c-.5.2-1 .3-1.6.3-2.5 0-4.3-2.1-4.3-4.6v-.1c0-2.5 1.7-4.5 4.3-4.5 2.5 0 4.3 2.1 4.3 4.6v10c4.2-1.6 6.9-5.5 6.9-9.9v-.1c0-5.8-4.8-10.6-11.2-10.6z"/><path id="XMLID_185_" class="st1" d="M254.2 152.4c-1.6-1.6-4.1-2.5-7.7-2.5-1.9 0-3.4.2-4.8.5l-2.5 6.3c1.9-.9 4.1-1.3 6.2-1.3 2.7 0 4.1 1.2 4.1 3.3v.3c-1.1-.4-3-.8-4.9-.8-4.7 0-7.9 2.2-7.9 6.4v.1c0 4.1 2.9 6.3 6.8 6.3 2.7 0 4.6-1 5.9-2.5v2.1h7.1v-11.7c-.1-2.9-.8-5-2.3-6.5zm-4.7 10.8c0 2-1.5 3.3-3.5 3.3-1.5 0-2.5-.8-2.5-2.2v-.1c0-1.5 1.2-2.5 3.3-2.5 1.1 0 2.1.2 2.8.5l-.1 1z"/></g></g><g><g id="XMLID_233_"><path id="XMLID_240_" class="st0" d="M213.9 242.7l-1.7-1.1 5.6-8.5c-.7.3-1.5.4-2.1.4-1.7 0-3.1-.6-4.2-1.8-1.1-1.2-1.7-2.7-1.7-4.4 0-1.2.3-2.3.8-3.2.5-.9 1.3-1.7 2.3-2.3 1-.6 2.1-.9 3.3-.9 1.1 0 2.2.3 3.2.8s1.7 1.3 2.3 2.3c.5 1 .8 2.1.8 3.2 0 .9-.2 1.7-.5 2.7-.3.9-.9 2.1-1.9 3.4l-6.2 9.4zm2.2-11c1.2 0 2.3-.4 3.1-1.3.9-.9 1.3-1.9 1.3-3.1 0-1.2-.4-2.2-1.3-3.1-.9-.9-1.9-1.3-3.1-1.3-1.2 0-2.2.4-3.1 1.3-.9.9-1.3 1.9-1.3 3.1 0 1.2.4 2.2 1.3 3.1.9.9 1.9 1.3 3.1 1.3z"/><path id="XMLID_238_" class="st0" d="M225.9 226.3h-2.1c.4-1.7 1.1-3 2.2-3.9 1.1-.9 2.4-1.4 3.9-1.4 1.1 0 2.1.3 3 .7.9.5 1.7 1.1 2.1 2 .5.9.7 1.7.7 2.6 0 1.8-.9 3.2-2.7 4.2 1 .4 1.8 1 2.5 1.8.9 1.1 1.3 2.3 1.3 3.7 0 1.2-.3 2.3-.9 3.3s-1.5 1.9-2.5 2.5c-1.1.6-2.3.9-3.6.9-1.8 0-3.3-.5-4.5-1.5-1.2-1-2-2.5-2.3-4.5h2c.3 1.3.9 2.3 1.5 2.9.9.7 1.9 1.1 3.3 1.1 1.5 0 2.7-.5 3.6-1.3.9-.9 1.3-1.9 1.3-3.1 0-.8-.2-1.5-.7-2.3s-1.1-1.2-1.8-1.6c-.7-.3-1.9-.6-3.5-.7v-1.9c.9 0 1.8-.1 2.6-.5.8-.3 1.3-.7 1.7-1.3s.5-1.1.5-1.7c0-.9-.3-1.7-1.1-2.3s-1.6-1-2.7-1c-.9 0-1.7.3-2.3.7-.5.6-1.1 1.4-1.5 2.6z"/><path id="XMLID_236_" class="st0" d="M240.4 239.1c.5 0 .9.2 1.2.5.3.3.5.7.5 1.3 0 .5-.2.9-.5 1.2-.3.3-.7.5-1.2.5s-.9-.2-1.2-.5c-.3-.3-.5-.7-.5-1.2s.2-.9.5-1.3c.3-.3.7-.5 1.2-.5z"/><path id="XMLID_234_" class="st0" d="M244.1 221.5h13.1l-11.1 21.2-1.7-.9 9.5-18.3H244v-2z"/></g><g id="XMLID_220_"><path id="XMLID_232_" class="st2" d="M184 198.1l-.2-.2V200.8c.1-.1.1-.1.2-.3v-2.4z"/><path id="XMLID_231_" class="st2" d="M196.8 204.9v13.3H189.7l.2.2h7.1v-13.3c0-2.5-.7-4.5-2.1-5.7 1.2 1.3 1.9 3.1 1.9 5.5z"/><path id="XMLID_230_" class="st2" d="M183.8 207.2v11H176.7l.2.2h7.1v-11c0-2.2 1.3-3.4 3-3.4.7 0 1.3.2 1.9.7-.5-.5-1.2-.9-2-.9-1.8 0-3.1 1.2-3.1 3.4z"/><path id="XMLID_229_" class="st2" d="M208.9 203.5c-2.6 0-4.3 2.1-4.3 4.5v.1c0 1.3.5 2.6 1.5 3.5-.8-.9-1.3-2-1.3-3.3v-.1c0-2.5 1.7-4.5 4.3-4.5 1.1 0 2.1.4 2.9 1.1-.8-.7-1.9-1.3-3.1-1.3z"/><path id="XMLID_228_" class="st2" d="M210.6 212.7v5.9c-.5.1-1.1.1-1.7.1-3.2 0-6-1.2-8-3.1 2 2 4.9 3.3 8.2 3.3.6 0 1.1-.1 1.7-.1v-6.2l-.2-.2v.3z"/><path id="XMLID_227_" class="st2" d="M220.2 208c0 4.4-2.7 8.2-6.7 9.8-.1.1-.2.1-.2.1l.2.2c4.2-1.6 6.9-5.5 6.9-9.9 0-2.9-1.2-5.5-3.2-7.5 1.9 2 3 4.5 3 7.3z"/><path id="XMLID_226_" class="st2" d="M239.5 204.6c1.9-.9 4.1-1.3 6.2-1.3 1.4 0 2.5.3 3.1.9-.7-.7-1.7-1.1-3.3-1.1-2.1 0-4.3.5-6.2 1.3l.2.2z"/><path id="XMLID_225_" class="st2" d="M247 209.6c.9 0 1.9.2 2.6.5v-.1c-.7-.3-1.7-.5-2.8-.5-2.1 0-3.3 1-3.3 2.5v.1c0 .7.3 1.3.7 1.6-.3-.3-.5-.9-.5-1.4v-.1c0-1.6 1.2-2.6 3.3-2.6z"/><path id="XMLID_224_" class="st2" d="M254.5 200.3c1.4 1.4 2 3.5 2 6.3v11.7H249.4l.2.2h7.1v-11.7c0-2.9-.6-5-2.2-6.5z"/><path id="XMLID_223_" class="st2" d="M249.5 216.1c-1.4 1.5-3.3 2.5-5.9 2.5-2 0-3.8-.6-5.1-1.8 1.3 1.3 3.1 2 5.3 2 2.5 0 4.4-.9 5.7-2.3v-.4z"/><path id="XMLID_222_" class="st2" d="M229.4 209.5l-3.7-11.4-.2-.2v.2l3.8 11.6z"/><path id="XMLID_221_" class="st2" d="M240.7 197.9l-8.2 20.3H226.1l.2.2h6.4l8.2-20.3z"/></g><g id="XMLID_213_"><path id="XMLID_219_" class="st1" d="M189.9 197.5c-2.9 0-4.7 1.6-6.1 3.3v-2.9h-7.1v20.3h7.1v-11c0-2.2 1.3-3.4 3-3.4s2.9 1.2 2.9 3.4v11h7.1v-13.3c0-4.6-2.6-7.4-6.9-7.4z"/><path id="XMLID_218_" class="st1" d="M233.3 197.9l-4 11.8-3.8-11.8h-7.6l8.2 20.3h6.4l8.2-20.3z"/><path id="XMLID_217_" class="st1" d="M209 197.5c-6.5 0-11.3 4.9-11.3 10.6v.1c0 5.8 4.7 10.5 11.2 10.5.6 0 1.1-.1 1.7-.1v-6.2c-.5.2-1 .3-1.6.3-2.5 0-4.3-2.1-4.3-4.6v-.1c0-2.5 1.7-4.5 4.3-4.5 2.5 0 4.3 2.1 4.3 4.6v10c4.2-1.6 6.9-5.5 6.9-9.9v-.2c0-5.7-4.7-10.5-11.2-10.5z"/><path id="XMLID_214_" class="st1" d="M254.3 200.1c-1.6-1.6-4.1-2.5-7.7-2.5-1.9 0-3.4.2-4.8.5l-2.5 6.3c1.9-.9 4.1-1.3 6.2-1.3 2.7 0 4.1 1.2 4.1 3.3v.3c-1.1-.4-3-.8-4.9-.8-4.7 0-7.9 2.2-7.9 6.4v.1c0 4.1 2.9 6.3 6.8 6.3 2.7 0 4.6-1 5.9-2.5v2.1h7.1v-11.7c-.1-2.9-.7-5-2.3-6.5zm-4.7 10.8c0 2-1.5 3.3-3.5 3.3-1.5 0-2.5-.8-2.5-2.2v-.1c0-1.5 1.2-2.5 3.3-2.5 1.1 0 2.1.2 2.8.5l-.1 1z"/></g></g><g><g id="XMLID_295_"><path id="XMLID_307_" class="st0" d="M205 125.7h4.1v20.7H207v-18.7h-3.3l1.3-2z"/><path id="XMLID_304_" class="st0" d="M211.1 136.1c0-2.7.3-4.9.9-6.3s1.4-2.6 2.5-3.4c1.1-.8 2.3-1.1 3.6-1.1 1.3 0 2.5.4 3.7 1.1 1.1.8 1.9 1.9 2.6 3.5.6 1.5.9 3.6.9 6.2s-.3 4.7-.9 6.2-1.5 2.7-2.6 3.5c-1.1.8-2.3 1.2-3.7 1.2-1.3 0-2.5-.4-3.6-1.1s-1.9-1.9-2.5-3.4c-.7-1.6-.9-3.7-.9-6.4zm1.9 0c0 2.3.2 4.1.6 5.3.4 1.2 1 2.1 1.9 2.7.8.6 1.7.9 2.6.9.9 0 1.8-.3 2.6-.9.8-.6 1.4-1.5 1.8-2.7.5-1.5.8-3.3.8-5.3 0-2.1-.2-3.8-.7-5.1s-1.1-2.3-1.9-2.9c-.8-.6-1.7-.9-2.5-.9-.9 0-1.8.3-2.6.9-.8.6-1.4 1.5-1.9 2.7-.5 1.2-.7 3-.7 5.3z"/><path id="XMLID_301_" class="st0" d="M234.7 125.2l1.7 1.1-5.6 8.5c.7-.3 1.5-.4 2.1-.4 1.7 0 3.1.6 4.2 1.8 1.1 1.2 1.7 2.7 1.7 4.4 0 1.2-.3 2.3-.8 3.2-.5.9-1.3 1.7-2.3 2.3-1 .6-2.1.9-3.3.9-1.1 0-2.2-.3-3.1-.8-1-.5-1.7-1.3-2.3-2.3-.5-1-.8-2.1-.8-3.2 0-.9.2-1.7.5-2.7.3-.9.9-2.1 1.9-3.4l6.1-9.4zm-2.3 11c-1.2 0-2.2.4-3.1 1.3-.9.9-1.3 1.9-1.3 3.1s.4 2.2 1.3 3.1 1.9 1.3 3.1 1.3c1.2 0 2.2-.4 3.1-1.3.9-.9 1.3-1.9 1.3-3.1s-.4-2.3-1.3-3.1c-.8-.8-1.9-1.3-3.1-1.3z"/><path id="XMLID_299_" class="st0" d="M242.4 143.3c.5 0 .9.2 1.2.5.3.3.5.7.5 1.3 0 .5-.2.9-.5 1.2-.3.3-.7.5-1.2.5s-.9-.2-1.2-.5c-.3-.3-.5-.7-.5-1.2s.2-.9.5-1.3c.3-.3.7-.5 1.2-.5z"/><path id="XMLID_296_" class="st0" d="M248.7 146.9l-1.7-1.1 5.6-8.5c-.7.3-1.5.4-2.1.4-1.7 0-3.1-.6-4.2-1.8-1.1-1.2-1.7-2.7-1.7-4.4 0-1.2.3-2.3.8-3.2.5-.9 1.3-1.7 2.3-2.3 1-.6 2.1-.9 3.3-.9 1.1 0 2.2.3 3.2.8s1.7 1.3 2.3 2.3c.5 1 .8 2.1.8 3.2 0 .9-.2 1.7-.5 2.7-.3.9-.9 2.1-1.9 3.4l-6.2 9.4zm2.3-11c1.2 0 2.3-.4 3.1-1.3.9-.9 1.3-1.9 1.3-3.1 0-1.2-.4-2.2-1.3-3.1-.9-.9-1.9-1.3-3.1-1.3-1.2 0-2.2.4-3.1 1.3-.9.9-1.3 1.9-1.3 3.1 0 1.2.4 2.2 1.3 3.1.9.9 1.9 1.3 3.1 1.3z"/></g><g id="XMLID_282_"><path id="XMLID_294_" class="st2" d="M184 102.5l-.2-.2V105.2c.1-.1.1-.1.2-.3v-2.4z"/><path id="XMLID_293_" class="st2" d="M196.8 109.3v13.3H189.7l.2.2h7.1v-13.3c0-2.5-.7-4.5-2.1-5.7 1.2 1.2 1.9 3.1 1.9 5.5z"/><path id="XMLID_292_" class="st2" d="M183.8 111.5v11H176.7l.2.2h7.1v-11c0-2.2 1.3-3.4 3-3.4.7 0 1.3.2 1.9.7-.5-.5-1.2-.9-2-.9-1.8 0-3.1 1.2-3.1 3.4z"/><path id="XMLID_291_" class="st2" d="M208.9 107.9c-2.6 0-4.3 2.1-4.3 4.5v.1c0 1.3.5 2.6 1.5 3.5-.8-.9-1.3-2-1.3-3.3v-.1c0-2.5 1.7-4.5 4.3-4.5 1.1 0 2.1.4 2.9 1.1-.8-.8-1.9-1.3-3.1-1.3z"/><path id="XMLID_290_" class="st2" d="M210.6 117v5.9c-.5.1-1.1.1-1.7.1-3.2 0-6-1.2-8-3.1 2 2 4.9 3.3 8.2 3.3.6 0 1.1-.1 1.7-.1v-6.2l-.2-.2v.3z"/><path id="XMLID_289_" class="st2" d="M220.2 112.4c0 4.4-2.7 8.2-6.7 9.8-.1.1-.2.1-.2.1l.2.2c4.2-1.6 6.9-5.5 6.9-9.9v-.1c0-2.9-1.2-5.5-3.2-7.5 1.9 2 3 4.6 3 7.4z"/><path id="XMLID_288_" class="st2" d="M239.5 108.9c1.9-.9 4.1-1.3 6.2-1.3 1.4 0 2.5.3 3.1.9-.7-.7-1.7-1.1-3.3-1.1-2.1 0-4.3.5-6.2 1.3l.2.2z"/><path id="XMLID_287_" class="st2" d="M247 113.9c.9 0 1.9.2 2.6.5v-.1c-.7-.3-1.7-.5-2.8-.5-2.1 0-3.3 1-3.3 2.5v.1c0 .7.3 1.3.7 1.6-.3-.3-.5-.9-.5-1.4v-.1c0-1.6 1.2-2.6 3.3-2.6z"/><path id="XMLID_286_" class="st2" d="M254.5 104.7c1.4 1.4 2 3.5 2 6.3v11.7H249.4l.2.2h7.1v-11.7c0-2.9-.6-5.1-2.2-6.5z"/><path id="XMLID_285_" class="st2" d="M249.5 120.5c-1.4 1.5-3.3 2.5-5.9 2.5-2 0-3.8-.6-5.1-1.8 1.3 1.3 3.1 2 5.3 2 2.5 0 4.4-.9 5.7-2.3v-.4z"/><path id="XMLID_284_" class="st2" d="M229.4 113.8l-3.7-11.3-.2-.2v.2l3.8 11.5z"/><path id="XMLID_283_" class="st2" d="M240.7 102.3l-8.2 20.2H226.1l.2.2h6.4l8.2-20.2z"/></g><g id="XMLID_275_"><path id="XMLID_281_" class="st1" d="M189.9 101.8c-2.9 0-4.7 1.6-6.1 3.3v-2.9h-7.1v20.3h7.1v-11c0-2.2 1.3-3.4 3-3.4s2.9 1.2 2.9 3.4v11h7.1v-13.3c0-4.5-2.6-7.4-6.9-7.4z"/><path id="XMLID_280_" class="st1" d="M233.3 102.3l-4 11.7-3.8-11.7h-7.6l8.2 20.2h6.4l8.2-20.2z"/><path id="XMLID_279_" class="st1" d="M209 101.9c-6.5 0-11.3 4.9-11.3 10.6v.1c0 5.8 4.7 10.5 11.2 10.5.6 0 1.1-.1 1.7-.1v-6.2c-.5.2-1 .3-1.6.3-2.5 0-4.3-2.1-4.3-4.6v-.1c0-2.5 1.7-4.5 4.3-4.5 2.5 0 4.3 2.1 4.3 4.6v10c4.2-1.6 6.9-5.5 6.9-9.9v-.1c0-5.9-4.7-10.6-11.2-10.6z"/><path id="XMLID_276_" class="st1" d="M254.3 104.5c-1.6-1.6-4.1-2.5-7.7-2.5-1.9 0-3.4.2-4.8.5l-2.5 6.3c1.9-.9 4.1-1.3 6.2-1.3 2.7 0 4.1 1.2 4.1 3.3v.3c-1.1-.4-3-.8-4.9-.8-4.7 0-7.9 2.2-7.9 6.4v.1c0 4.1 2.9 6.3 6.8 6.3 2.7 0 4.6-1 5.9-2.5v2.1h7.1v-11.8c-.1-2.8-.7-5-2.3-6.4zm-4.7 10.7c0 2-1.5 3.3-3.5 3.3-1.5 0-2.5-.8-2.5-2.2v-.1c0-1.5 1.2-2.5 3.3-2.5 1.1 0 2.1.2 2.8.5l-.1 1z"/></g></g></svg>